<svg xmlns="http://www.w3.org/2000/svg" viewBox="0 0 64 64" fill="none">
  <defs>
    <linearGradient id="g" x1="0" y1="0" x2="64" y2="64" gradientUnits="userSpaceOnUse">
      <stop offset="0" stop-color="#22e2ff"/>
      <stop offset="0.55" stop-color="#9b6bff"/>
      <stop offset="1" stop-color="#ff52d9"/>
    </linearGradient>
    <radialGradient id="glow" cx="32" cy="32" r="30" gradientUnits="userSpaceOnUse">
      <stop offset="0" stop-color="#9b6bff" stop-opacity="0.55"/>
      <stop offset="1" stop-color="#070818" stop-opacity="0"/>
    </radialGradient>
  </defs>
  <rect width="64" height="64" rx="14" fill="#070818"/>
  <circle cx="32" cy="32" r="28" fill="url(#glow)"/>
  <path d="M22 14h12c8 0 14 6 14 14 0 5-3 9-7 11 5 2 8 6 8 12 0 8-6 13-14 13H22V14Zm6 6v14h7c4 0 7-3 7-7s-3-7-7-7h-7Zm0 20v18h8c5 0 8-4 8-9s-3-9-8-9h-8Z" fill="url(#g)"/>
</svg>
